<?xml version="1.0" encoding="UTF-8"?>
<svg width="19px" height="19px" viewBox="0 0 19 19" version="1.1" xmlns="http://www.w3.org/2000/svg" xmlns:xlink="http://www.w3.org/1999/xlink">
    <title>编组 2</title>
    <defs>
        <linearGradient x1="0%" y1="50%" x2="97.6917614%" y2="50%" id="linearGradient-1">
            <stop stop-color="#08BBB0" offset="0%"></stop>
            <stop stop-color="#0A9BE5" offset="100%"></stop>
        </linearGradient>
    </defs>
    <g id="可视化大屏" stroke="none" stroke-width="1" fill="none" fill-rule="evenodd">
        <g id="弹出框-工会" transform="translate(-898, -388)">
            <g id="编组-2" transform="translate(898, 388)">
                <rect id="矩形备份-22" fill="url(#linearGradient-1)" x="0" y="0" width="19" height="19" rx="9.5"></rect>
                <path d="M9.5,4.75 C11.6861271,4.75 13.4583333,6.5174685 13.4583333,8.6977514 C13.4583333,10.1512733 12.1388889,12.2659117 9.5,15.0416667 C6.86111111,12.2659117 5.54166667,10.1512733 5.54166667,8.6977514 C5.54166667,6.5174685 7.31387287,4.75 9.5,4.75 Z M9.5,7.125 C8.62554915,7.125 7.91666667,7.83388248 7.91666667,8.70833333 C7.91666667,9.58278419 8.62554915,10.2916667 9.5,10.2916667 C10.3744509,10.2916667 11.0833333,9.58278419 11.0833333,8.70833333 C11.0833333,7.83388248 10.3744509,7.125 9.5,7.125 Z" id="形状结合备份-11" fill="#FFFFFF"></path>
            </g>
        </g>
    </g>
</svg>