<?xml version="1.0" encoding="UTF-8"?>
<svg width="76px" height="108px" viewBox="0 0 76 108" version="1.1" xmlns="http://www.w3.org/2000/svg" xmlns:xlink="http://www.w3.org/1999/xlink">
    <title>编组 8备份 5</title>
    <defs>
        <linearGradient x1="50%" y1="0%" x2="50%" y2="100%" id="linearGradient-1">
            <stop stop-color="#001F37" offset="0%"></stop>
            <stop stop-color="#27EAFF" stop-opacity="0.630463287" offset="47.1694672%"></stop>
            <stop stop-color="#3075CA" offset="100%"></stop>
        </linearGradient>
        <linearGradient x1="50%" y1="0%" x2="50%" y2="100%" id="linearGradient-2">
            <stop stop-color="#3697B3" offset="0%"></stop>
            <stop stop-color="#0A519C" offset="100%"></stop>
        </linearGradient>
    </defs>
    <g id="可视化大屏" stroke="none" stroke-width="1" fill="none" fill-rule="evenodd">
        <g id="民呼我为" transform="translate(-212, -210)">
            <g id="编组-8备份-5" transform="translate(212, 210)">
                <path d="M68,1 C69.9329966,1 71.6829966,1.78350169 72.9497475,3.05025253 C74.2164983,4.31700338 75,6.06700338 75,8.00001964 L75.0007856,48 C73.0670034,48 71.3170034,48.7835017 70.0502525,50.0502525 C68.7835017,51.3170034 68,53.0670034 68,55 C68,56.9329966 68.7835017,58.6829966 70.0502525,59.9497475 C71.3170034,61.2164983 73.0670034,62 75,62 L75,100 C75,101.932997 74.2164983,103.682997 72.9497475,104.949747 C71.6829966,106.216498 69.9329966,107 68,107 L8,107 C6.06700338,107 4.31700338,106.216498 3.05025253,104.949747 C1.78350169,103.682997 1,101.932997 1,100 L1,61.9291111 C2.53284558,61.7098548 3.90549517,60.9939998 4.94974747,59.9497475 C6.21649831,58.6829966 7,56.9329966 7,55 C7,53.0670034 6.21649831,51.3170034 4.94974747,50.0502525 C3.90549517,49.0060002 2.53284558,48.2901452 1,48.0708889 L1,8 C1,6.06700338 1.78350169,4.31700338 3.05025253,3.05025253 C4.31700338,1.78350169 6.06700338,1 8,1 Z" id="形状结合" stroke="url(#linearGradient-2)" stroke-width="2" fill="url(#linearGradient-1)"></path>
                <rect id="矩形" fill="#062C56" x="7.77531745" y="51.849022" width="60" height="5.80562347"></rect>
            </g>
        </g>
    </g>
</svg>